<?xml version="1.0" encoding="utf-8"?>
<!-- Generator: Adobe Illustrator 21.1.0, SVG Export Plug-In . SVG Version: 6.00 Build 0)  -->
<svg version="1.1" id="Capa_1" xmlns="http://www.w3.org/2000/svg" xmlns:xlink="http://www.w3.org/1999/xlink" x="0px" y="0px"
	 viewBox="0 0 578.3 489" style="enable-background:new 0 0 578.3 489;" xml:space="preserve">
<g>
	<g>
		<path d="M533.3,115.7c0.5-26.5-5.3-53.3-10-79.7c-1.6-9.1-4.9-17.9-8.2-26.5c-2.4-6.5-9.7-10.6-16.3-9.2c-4.3,0.9-8.2,1.8-11.9,3
			c-39.3,12.9-75.7,31.9-110.7,53.8c-4.7,2.9-11.5,4-17.2,3.6c-13.6-1-27-4.4-40.6-5c-33.6-1.6-67.1-0.6-100.4,5.3
			c-4.6,0.8-10.7,0-14.6-2.5C165.3,33.9,125.6,12.8,80.9,0.9c-6.7-1.8-13.6-0.8-15.3,1.8c-1,1.6-2,3.3-2.5,5.1
			C58.3,24.8,52.6,41.7,49.8,59c-3.3,20.7-6.6,41.9-5,62.6c1,13-2.6,20.9-9.7,30C11.4,182.1,0.7,217.2,0,255.7
			c-0.6,32.9,3.8,65,13.8,96.5c15.4,48.2,45,84.4,89.7,108c36.7,19.4,76.7,26.8,117.6,28.3c36.9,1.3,73.9,0.2,110.8,0.4
			c37,0.2,73.5-3.1,108.9-14.6c35.4-11.5,66.1-30.2,89.9-59.5c34.4-42.3,45.1-92.2,47.3-145c1.7-40.4-6.5-78.3-30.2-111.3
			C538.3,145,533,133.5,533.3,115.7z M462,425c-15.9,13.7-35.3,20.2-55.2,25c-39,9.3-78.7,11.6-118.5,9.9
			c-39.4,1.7-78.3-0.7-116.6-9.8c-28.3-6.6-54.1-17.8-72-42.1C71.1,369.4,63.8,296,111.1,255.9c12.1-10.2,25.5-16.7,41.4-17.7
			c17.5-1.1,35.1-3.3,52.6-3.1c44.2,0.5,88.4,2.7,132.6,3.1c20.2,0.1,40.5-4.6,60.5-3.3c18.2,1.1,37.4,4.5,53.9,11.8
			c27.5,12.2,42.4,37,46.9,66C505.6,355.7,496.8,394.9,462,425z"/>
		<ellipse cx="390" cy="340.9" rx="42.1" ry="56.3"/>
		<ellipse cx="189" cy="340.9" rx="42.1" ry="56.3"/>
	</g>
</g>
</svg>
