<?xml version="1.0" encoding="utf-8"?><svg xmlns="http://www.w3.org/2000/svg" xmlns:xlink="http://www.w3.org/1999/xlink"><symbol viewBox="0 0 60.017 60.017" id="blog"><path d="M59.144 3.731L56.294.88a2.991 2.991 0 00-4.221.001l-3.126 3.126H0v56h56v-48.91l.305-.305 2.839-2.839a2.989 2.989 0 000-4.222zM20.047 36.759l3.22 3.22-4.428 1.208 1.208-4.428zm32.015-24.553L47.82 7.964l1.414-1.414 4.243 4.242-1.415 1.414zm-1.414 1.414L25.192 39.076l-4.242-4.242L46.406 9.378l4.242 4.242zM54 13.097v44.91H2v-52h44.947l-28.118 28.12-.188.188-2.121 7.779-1.226 1.226a.999.999 0 101.414 1.414l1.226-1.226 7.779-2.123 26.351-26.35.447-.447L54 13.097zm3.73-6.558l-2.839 2.839-4.243-4.243 2.839-2.839a.987.987 0 011.393 0l2.85 2.85a.986.986 0 010 1.393z"/></symbol><symbol viewBox="0 0 512 512" id="calendar"><circle cx="386" cy="210" r="20"/><path d="M432 40h-26V20c0-11.046-8.954-20-20-20s-20 8.954-20 20v20h-91V20c0-11.046-8.954-20-20-20s-20 8.954-20 20v20h-90V20c0-11.046-8.954-20-20-20s-20 8.954-20 20v20H80C35.888 40 0 75.888 0 120v312c0 44.112 35.888 80 80 80h153c11.046 0 20-8.954 20-20s-8.954-20-20-20H80c-22.056 0-40-17.944-40-40V120c0-22.056 17.944-40 40-40h25v20c0 11.046 8.954 20 20 20s20-8.954 20-20V80h90v20c0 11.046 8.954 20 20 20s20-8.954 20-20V80h91v20c0 11.046 8.954 20 20 20s20-8.954 20-20V80h26c22.056 0 40 17.944 40 40v114c0 11.046 8.954 20 20 20s20-8.954 20-20V120c0-44.112-35.888-80-80-80z"/><path d="M391 270c-66.72 0-121 54.28-121 121s54.28 121 121 121 121-54.28 121-121-54.28-121-121-121zm0 202c-44.663 0-81-36.336-81-81s36.337-81 81-81 81 36.336 81 81-36.337 81-81 81z"/><path d="M420 371h-9v-21c0-11.046-8.954-20-20-20s-20 8.954-20 20v41c0 11.046 8.954 20 20 20h29c11.046 0 20-8.954 20-20s-8.954-20-20-20z"/><circle cx="299" cy="210" r="20"/><circle cx="212" cy="297" r="20"/><circle cx="125" cy="210" r="20"/><circle cx="125" cy="297" r="20"/><circle cx="125" cy="384" r="20"/><circle cx="212" cy="384" r="20"/><circle cx="212" cy="210" r="20"/></symbol><symbol viewBox="0 0 29.731 29.731" id="contacts"><path d="M23.895 29.731c-1.237 0-2.731-.31-4.374-.93-3.602-1.358-7.521-4.042-11.035-7.556C4.971 17.73 2.287 13.81.928 10.208-.307 6.933-.31 4.245.921 3.015c.177-.177.357-.367.543-.563C2.587 1.271 3.856-.058 5.538.002 6.697.05 7.82.77 8.97 2.201c3.398 4.226 1.866 5.732.093 7.478l-.313.31c-.29.29-.838 1.633 4.26 6.731 1.664 1.664 3.083 2.882 4.217 3.619.714.464 1.991 1.166 2.515.642l.315-.318c1.744-1.769 3.25-3.296 7.473.099 1.431 1.15 2.15 2.272 2.198 3.433.069 1.681-1.27 2.953-2.452 4.075-.195.186-.385.366-.562.542-.611.612-1.588.919-2.819.919zM5.418 1C4.223 1 3.144 2.136 2.189 3.141c-.192.202-.378.398-.561.581-.917.916-.824 3.323.236 6.134 1.31 3.472 3.913 7.266 7.33 10.683 3.416 3.415 7.208 6.018 10.681 7.327 2.811 1.062 5.218 1.152 6.133.237.183-.183.379-.369.581-.56 1.027-.976 2.192-2.082 2.141-3.309-.035-.843-.649-1.75-1.825-2.695-3.519-2.83-4.503-1.831-6.135-.176l-.32.323c-.78.781-2.047.608-3.767-.51-1.193-.776-2.667-2.038-4.379-3.751-4.231-4.23-5.584-6.819-4.26-8.146l.319-.315c1.659-1.632 2.66-2.617-.171-6.138-.947-1.175-1.853-1.789-2.696-1.825L5.418 1z"/></symbol><symbol viewBox="0 0 512 512" id="f" xmlns="http://www.w3.org/2000/svg"><path d="M436 111.196V0H76v512h127.192V306.021h200.962V194.81H203.192v-83.614z"/></symbol><symbol viewBox="0 0 578.3 489" id="git" xmlns="http://www.w3.org/2000/svg"><path d="M533.3 115.7c.5-26.5-5.3-53.3-10-79.7-1.6-9.1-4.9-17.9-8.2-26.5-2.4-6.5-9.7-10.6-16.3-9.2-4.3.9-8.2 1.8-11.9 3-39.3 12.9-75.7 31.9-110.7 53.8-4.7 2.9-11.5 4-17.2 3.6-13.6-1-27-4.4-40.6-5-33.6-1.6-67.1-.6-100.4 5.3-4.6.8-10.7 0-14.6-2.5C165.3 33.9 125.6 12.8 80.9.9 74.2-.9 67.3.1 65.6 2.7c-1 1.6-2 3.3-2.5 5.1-4.8 17-10.5 33.9-13.3 51.2-3.3 20.7-6.6 41.9-5 62.6 1 13-2.6 20.9-9.7 30C11.4 182.1.7 217.2 0 255.7c-.6 32.9 3.8 65 13.8 96.5 15.4 48.2 45 84.4 89.7 108 36.7 19.4 76.7 26.8 117.6 28.3 36.9 1.3 73.9.2 110.8.4 37 .2 73.5-3.1 108.9-14.6 35.4-11.5 66.1-30.2 89.9-59.5 34.4-42.3 45.1-92.2 47.3-145 1.7-40.4-6.5-78.3-30.2-111.3-9.5-13.5-14.8-25-14.5-42.8zM462 425c-15.9 13.7-35.3 20.2-55.2 25-39 9.3-78.7 11.6-118.5 9.9-39.4 1.7-78.3-.7-116.6-9.8-28.3-6.6-54.1-17.8-72-42.1-28.6-38.6-35.9-112 11.4-152.1 12.1-10.2 25.5-16.7 41.4-17.7 17.5-1.1 35.1-3.3 52.6-3.1 44.2.5 88.4 2.7 132.6 3.1 20.2.1 40.5-4.6 60.5-3.3 18.2 1.1 37.4 4.5 53.9 11.8 27.5 12.2 42.4 37 46.9 66 6.6 43-2.2 82.2-37 112.3z"/><ellipse cx="390" cy="340.9" rx="42.1" ry="56.3"/><ellipse cx="189" cy="340.9" rx="42.1" ry="56.3"/></symbol><symbol viewBox="0 0 539.077 539.077" id="home"><path d="M460.462 527.846h-134.77a11.224 11.224 0 01-11.231-11.231v-146h-89.846v146a11.224 11.224 0 01-11.231 11.231H78.615a11.224 11.224 0 01-11.231-11.231V292a11.224 11.224 0 0111.231-11.231A11.224 11.224 0 0189.846 292v213.385h112.308v-146a11.224 11.224 0 0111.231-11.231h112.308a11.224 11.224 0 0111.231 11.231v146h112.308V303.231A11.224 11.224 0 01460.463 292a11.224 11.224 0 0111.231 11.231v213.385c-.002 6.207-5.025 11.23-11.232 11.23zM527.846 292a11.195 11.195 0 01-7.94-3.29L269.538 38.343 19.171 288.71c-4.387 4.387-11.494 4.387-15.881 0-4.387-4.387-4.387-11.494 0-15.881L261.598 14.521c4.387-4.387 11.494-4.387 15.881 0l258.308 258.308c4.387 4.387 4.387 11.494 0 15.881a11.197 11.197 0 01-7.941 3.29zM438 134.769a11.224 11.224 0 01-11.231-11.231V56.154h-67.385c-6.208 0-11.231-5.023-11.231-11.231s5.023-11.231 11.231-11.231H438a11.224 11.224 0 0111.231 11.231v78.615A11.224 11.224 0 01438 134.769z"/></symbol><symbol viewBox="0 0 44.69 44.69" id="in"><path class="gcls-1" d="M0 22.81v21.88h10.42v-29.8H0zM44.45 24c-.69-5.65-3.26-9.16-10.89-9.16-4.47 0-7.49 1.65-8.75 4h-.14v-4h-8.3v29.8h8.69V29.91c0-3.89.77-7.65 5.54-7.65s5.15 4.44 5.15 7.92v14.5h8.94V28.32a34.87 34.87 0 00-.24-4.32zM5.21 0a5.21 5.21 0 105.21 5.21A5.21 5.21 0 005.21 0z"/></symbol><symbol viewBox="0 0 162.656 162.656" id="link" xmlns="http://www.w3.org/2000/svg"><path d="M151.764 10.894c-14.522-14.522-38.152-14.525-52.676-.008l.003.003-22.979 22.983 10.607 10.605 22.983-22.988-.002-.002c8.678-8.663 22.785-8.658 31.457.014 8.673 8.672 8.672 22.786 0 31.461l-34.486 34.484a22.095 22.095 0 01-15.729 6.516 22.098 22.098 0 01-15.73-6.516L64.605 98.052c7.035 7.035 16.389 10.91 26.338 10.91 9.949 0 19.303-3.875 26.335-10.91l34.487-34.484c14.519-14.525 14.519-38.155-.001-52.674z"/><path d="M52.96 141.162c-8.675 8.67-22.788 8.668-31.461-.005-8.673-8.675-8.673-22.791-.001-31.465L55.98 75.21c8.675-8.674 22.789-8.674 31.462 0L98.05 64.604c-14.524-14.523-38.154-14.524-52.676 0L10.89 99.086c-14.519 14.523-14.519 38.154.001 52.678 7.263 7.262 16.801 10.893 26.341 10.892 9.536 0 19.074-3.629 26.333-10.887l.002-.001 22.984-22.99-10.608-10.606-22.983 22.99z"/></symbol><symbol viewBox="0 0 28.6 29.3" id="logo" xmlns="http://www.w3.org/2000/svg"><text transform="translate(.51 24.911)" font-size="31" font-family="Mistral">VB</text></symbol><symbol viewBox="0 0 28.6 45.1" id="logo-01" xmlns="http://www.w3.org/2000/svg"><text transform="translate(-1.78 34.295)" font-size="28" font-family="Mistral">V</text></symbol><symbol viewBox="0 0 28.6 45.1" id="logo-02" xmlns="http://www.w3.org/2000/svg"><text transform="translate(7.436 33.253)" font-size="31" font-family="Mistral">B</text></symbol><symbol viewBox="0 0 512 512" id="magnific"><path d="M495 466.2L377.2 348.4c29.2-35.6 46.8-81.2 46.8-130.9C424 103.5 331.5 11 217.5 11 103.4 11 11 103.5 11 217.5S103.4 424 217.5 424c49.7 0 95.2-17.5 130.8-46.7L466.1 495c8 8 20.9 8 28.9 0 8-7.9 8-20.9 0-28.8zm-277.5-83.3C126.2 382.9 52 308.7 52 217.5S126.2 52 217.5 52C308.7 52 383 126.3 383 217.5s-74.3 165.4-165.5 165.4z"/></symbol><symbol viewBox="0 0 14 14" id="mail" xmlns="http://www.w3.org/2000/svg"><g><path d="M7 9L5.268 7.484.316 11.729c.18.167.423.271.691.271h11.986c.267 0 .509-.104.688-.271L8.732 7.484 7 9z"/><path d="M13.684 2.271A1.007 1.007 0 0012.993 2H1.007c-.267 0-.509.104-.689.273L7 8l6.684-5.729zM0 2.878v8.308l4.833-4.107zm9.167 4.201L14 11.186V2.875z"/></g></symbol><symbol viewBox="0 0 55 55" id="resume"><path d="M55 27.5C55 12.337 42.663 0 27.5 0S0 12.337 0 27.5c0 8.009 3.444 15.228 8.926 20.258l-.026.023.892.752c.058.049.121.089.179.137.474.393.965.766 1.465 1.127.162.117.324.234.489.348.534.368 1.082.717 1.642 1.048.122.072.245.142.368.212a27.44 27.44 0 001.88.98l.142.064a27.252 27.252 0 006.651 2.105l.184.033c.724.125 1.456.225 2.197.292.09.008.18.013.271.021.738.061 1.484.1 2.24.1.749 0 1.488-.039 2.222-.098l.279-.021a27.808 27.808 0 002.178-.287l.187-.034a27.251 27.251 0 006.557-2.055c.076-.035.153-.068.229-.104a27.639 27.639 0 002.25-1.189 27.514 27.514 0 001.581-1c.185-.126.366-.259.549-.391.439-.316.87-.642 1.289-.983.093-.075.193-.14.284-.217l.915-.764-.027-.023C51.523 42.802 55 35.55 55 27.5zm-53 0C2 13.439 13.439 2 27.5 2S53 13.439 53 27.5c0 7.577-3.325 14.389-8.589 19.063a7.494 7.494 0 00-.893-.537l-8.467-4.233a2.217 2.217 0 01-1.232-1.993v-2.957c.196-.242.403-.516.617-.817a20.378 20.378 0 002.616-5.123 3.63 3.63 0 002.085-3.289v-3.545c0-.867-.318-1.708-.887-2.369v-4.667c.052-.519.236-3.448-1.883-5.864C34.524 9.065 31.541 8 27.5 8s-7.024 1.065-8.867 3.168c-2.119 2.416-1.935 5.345-1.883 5.864v4.667a3.644 3.644 0 00-.887 2.369v3.545c0 1.101.494 2.128 1.34 2.821.81 3.173 2.477 5.575 3.093 6.389v2.894a2.23 2.23 0 01-1.162 1.958l-7.907 4.313a7.227 7.227 0 00-.752.476C5.276 41.792 2 35.022 2 27.5zm40.459 20.632c-.35.254-.706.5-1.067.735-.166.108-.331.216-.5.321-.472.292-.952.57-1.442.83-.108.057-.217.111-.326.167a25.481 25.481 0 01-3.488 1.476l-.127.043c-.627.208-1.262.393-1.904.552l-.006.001a25.59 25.59 0 01-1.964.402l-.054.01c-.621.101-1.247.174-1.875.229-.111.01-.222.017-.334.025-.621.047-1.245.077-1.872.077a25.43 25.43 0 01-1.895-.078c-.109-.008-.218-.015-.326-.025a25.862 25.862 0 01-1.89-.233l-.084-.015a25.405 25.405 0 01-3.89-.971l-.118-.04a25.86 25.86 0 01-1.862-.713l-.013-.006a26.094 26.094 0 01-1.705-.816c-.073-.038-.147-.074-.219-.113a25.7 25.7 0 01-1.939-1.155 25.417 25.417 0 01-1.338-.933l-.133-.104.096-.054 7.907-4.313a4.229 4.229 0 002.205-3.714l-.001-3.602-.23-.278c-.022-.025-2.184-2.655-3.001-6.216l-.091-.396-.341-.221a1.657 1.657 0 01-.769-1.392v-3.545c0-.465.197-.898.557-1.223l.33-.298v-5.57l-.009-.131c-.003-.024-.298-2.429 1.396-4.36C21.583 10.837 24.061 10 27.5 10c3.426 0 5.896.83 7.346 2.466 1.692 1.911 1.415 4.361 1.413 4.381l-.009 5.701.33.298c.359.324.557.758.557 1.223v3.545a1.67 1.67 0 01-1.181 1.575l-.497.153-.16.495a18.5 18.5 0 01-2.496 5.032c-.262.37-.517.698-.736.949l-.248.283V39.8c0 1.612.896 3.062 2.338 3.782l8.467 4.233.16.083c-.107.081-.217.156-.325.234z"/></symbol><symbol viewBox="0 0 24 24" id="rss" xmlns="http://www.w3.org/2000/svg"><circle cx="3.429" cy="20.571" r="3.429"/><path d="M11.429 24h4.57C15.999 15.179 8.821 8.001 0 8v4.572c6.302.001 11.429 5.126 11.429 11.428z"/><path d="M24 24C24 10.766 13.234 0 0 0v4.571c10.714 0 19.43 8.714 19.43 19.429z"/></symbol><symbol viewBox="0 0 329 402.3" id="scroll-2-top" xmlns="http://www.w3.org/2000/svg"><path d="M146.3 70v332.3h36.6V70l120.5 120.5 25.7-25.9L164.5 0 0 164.6l25.8 25.9L146.3 70z"/></symbol><symbol viewBox="0 0 300 300" id="telegram"><path d="M5.299 144.645l69.126 25.8 26.756 86.047c1.712 5.511 8.451 7.548 12.924 3.891l38.532-31.412a11.496 11.496 0 0114.013-.391l69.498 50.457c4.785 3.478 11.564.856 12.764-4.926L299.823 29.22c1.31-6.316-4.896-11.585-10.91-9.259L5.218 129.402c-7.001 2.7-6.94 12.612.081 15.243zm91.57 12.066l135.098-83.207c2.428-1.491 4.926 1.792 2.841 3.726L123.313 180.87a23.112 23.112 0 00-7.163 13.829l-3.798 28.146c-.503 3.758-5.782 4.131-6.819.494l-14.607-51.325c-1.673-5.854.765-12.107 5.943-15.303z"/></symbol><symbol viewBox="0 0 418.135 418.135" id="whatsapp" xmlns="http://www.w3.org/2000/svg"><g><path d="M198.929.242C88.5 5.5 1.356 97.466 1.691 208.02c.102 33.672 8.231 65.454 22.571 93.536L2.245 408.429c-1.191 5.781 4.023 10.843 9.766 9.483l104.723-24.811c26.905 13.402 57.125 21.143 89.108 21.631 112.869 1.724 206.982-87.897 210.5-200.724C420.113 93.065 320.295-5.538 198.929.242zm124.957 321.955c-30.669 30.669-71.446 47.559-114.818 47.559-25.396 0-49.71-5.698-72.269-16.935l-14.584-7.265-64.206 15.212 13.515-65.607-7.185-14.07c-11.711-22.935-17.649-47.736-17.649-73.713 0-43.373 16.89-84.149 47.559-114.819 30.395-30.395 71.837-47.56 114.822-47.56 43.372.001 84.147 16.891 114.816 47.559 30.669 30.669 47.559 71.445 47.56 114.817-.001 42.986-17.166 84.428-47.561 114.822z"/><path d="M309.712 252.351l-40.169-11.534a14.971 14.971 0 00-14.816 3.903l-9.823 10.008c-4.142 4.22-10.427 5.576-15.909 3.358-19.002-7.69-58.974-43.23-69.182-61.007-2.945-5.128-2.458-11.539 1.158-16.218l8.576-11.095a14.97 14.97 0 001.847-15.21l-16.9-38.223c-4.048-9.155-15.747-11.82-23.39-5.356-11.211 9.482-24.513 23.891-26.13 39.854-2.851 28.144 9.219 63.622 54.862 106.222 52.73 49.215 94.956 55.717 122.449 49.057 15.594-3.777 28.056-18.919 35.921-31.317 5.362-8.453 1.128-19.679-8.494-22.442z"/></g></symbol><symbol viewBox="0 0 60 60" id="works"><path d="M57.49 21.5H54v-6.268a2.735 2.735 0 00-2.732-2.732H26.515l-5-7H2.732A2.736 2.736 0 000 8.232v43.687h.006c-.005.563.17 1.114.522 1.575A2.546 2.546 0 002.565 54.5h44.759c1.156 0 2.174-.779 2.45-1.813L60 24.649v-.177c0-1.722-1.056-2.972-2.51-2.972zM2 8.232c0-.404.329-.732.732-.732h17.753l5 7h25.782c.404 0 .732.328.732.732V21.5H12.731c-.144 0-.287.012-.426.036-.973.163-1.782.873-2.023 1.776L2 45.899V8.232zm45.869 43.851a.566.566 0 01-.545.417H2.565a.552.552 0 01-.448-.222c-.063-.082-.16-.256-.123-.408l10.191-27.953a.566.566 0 01.545-.417h44.76c.38 0 .477.546.502.819L47.869 52.083z"/></symbol><symbol viewBox="0 -48 511.999 511" id="writer" xmlns="http://www.w3.org/2000/svg"><path d="M24.86 312.969c3.82 1.91 7.933 3.23 12.175 3.969l-6.61 9.437a15.048 15.048 0 00-2.55 6.402l-9.84 66.36a14.998 14.998 0 0021.98 15.39l55.575-30.093c7.676 13.867 22.457 23.28 39.398 23.28 11.516 0 22.035-4.347 30-11.484 7.969 7.137 18.489 11.485 30 11.485 24.817 0 45.004-20.188 45.004-45v-5.742c27.903 13.578 58.973 20.742 90 20.742 32.051 0 63.836-7.352 92.004-21.246v36.246c0 5.2 2.691 10.027 7.113 12.762a15.006 15.006 0 0014.594.656l60.004-30A15.003 15.003 0 00512 362.715V182.71c0-8.285-6.719-15-15-15H393.469l-105.817-51.777 40.203-57.414c4.747-6.782 3.102-16.141-3.687-20.891L275.02 3.21c-6.782-4.746-16.141-3.102-20.891 3.684-6.352 9.07-46.883 66.957-53.192 75.964-12.304-6.464-27.058-6.433-36.417-2.37l-57.079 24.796a44.834 44.834 0 00-20.043 17.133L5.492 251.246c-5.32 8.371-7.523 22.734-3.203 35.7 3.8 11.402 11.816 20.644 22.57 26.023zm27.253 60.894l4.922-33.18 13.414-19.16a60.424 60.424 0 0022.73 19.844l-11.57 16.524zm82.875 3.856c-8.27 0-15-6.73-15-15.004v-7.332l5.371-7.668h24.63v15c0 8.273-6.727 15.004-15 15.004zm60.004 0c-8.273 0-15-6.73-15-15.004v-15h30v15c0 8.273-6.73 15.004-15 15.004zM482 353.445l-30.004 15V197.711H482zm-98.598-157.261a15.018 15.018 0 006.594 1.527h32v125.531c-10.11 3.93-41.5 24.473-92 24.473-53.535 0-86.508-23.711-98.297-28.418a15.168 15.168 0 00-6.707-1.582H119.988c-15.34 0-28.02-11.574-29.781-26.45.469-2.175.426-4.41-.07-6.546 1.508-15.14 14.32-27.004 29.851-27.004h92.578c31.364 0 60.856-12.215 83.036-34.395 5.855-5.86 5.855-15.355 0-21.215-5.86-5.859-15.356-5.859-21.215 0-16.516 16.512-38.469 25.61-61.82 25.61h-3.18l60.843-86.899zM235.684 85.543l24.574 17.21-87.496 124.962h-36.625l99.547-142.172zm34.414-49.148l24.578 17.207-17.211 24.578-24.574-17.211zM31.293 266.582l81.422-128.066a14.95 14.95 0 016.683-5.711l56.364-24.489a15.056 15.056 0 017.523-.242l-87.289 124.66c-18.45 8.082-32.082 25.176-35.285 45.692-2.742 7.703-14.66 11.594-22.434 7.707-7.316-3.656-10.222-12.34-6.984-19.551zm0 0"/></symbol></svg>